<?xml version="1.0" encoding="UTF-8" standalone="no"?>
<!DOCTYPE svg PUBLIC "-//W3C//DTD SVG 1.1//EN"
 "http://www.w3.org/Graphics/SVG/1.1/DTD/svg11.dtd">
<!-- Generated by graphviz version 2.40.1 (20161225.0304)
 -->
<!-- Title: G Pages: 1 -->
<svg width="754pt" height="260pt"
 viewBox="0.00 0.00 754.00 260.00" xmlns="http://www.w3.org/2000/svg" xmlns:xlink="http://www.w3.org/1999/xlink">
<g id="graph0" class="graph" transform="scale(1 1) rotate(0) translate(4 256)">
<title>G</title>
<polygon fill="#ffffff" stroke="transparent" points="-4,4 -4,-256 750,-256 750,4 -4,4"/>
<!-- 1 -->
<g id="node1" class="node">
<title>1</title>
<polygon fill="#add8e6" stroke="#0000ff" points="54,-252 0,-252 0,-216 54,-216 54,-252"/>
<text text-anchor="middle" x="27" y="-230.3" font-family="Times,serif" font-size="14.00" fill="#000000">1</text>
</g>
<!-- a1 -->
<g id="node16" class="node">
<title>a1</title>
<polygon fill="none" stroke="#000000" points="81,-243 72,-234 81,-225 90,-234 81,-243"/>
</g>
<!-- 1&#45;&gt;a1 -->
<g id="edge1" class="edge">
<title>1&#45;&gt;a1</title>
<path fill="none" stroke="#000000" d="M54.3164,-234C60.5947,-234 66.8502,-234 71.7247,-234"/>
</g>
<!-- 2 -->
<g id="node2" class="node">
<title>2</title>
<ellipse fill="#ffc0cb" stroke="#ff0000" cx="135" cy="-234" rx="27" ry="18"/>
<text text-anchor="middle" x="135" y="-230.3" font-family="Times,serif" font-size="14.00" fill="#000000">2</text>
</g>
<!-- t1 -->
<!-- 2&#45;&gt;t1 -->
<!-- 3 -->
<g id="node3" class="node">
<title>3</title>
<polygon fill="#add8e6" stroke="#0000ff" points="108,-180 54,-180 54,-144 108,-144 108,-180"/>
<text text-anchor="middle" x="81" y="-158.3" font-family="Times,serif" font-size="14.00" fill="#000000">9</text>
</g>
<!-- 6 -->
<g id="node6" class="node">
<title>6</title>
<ellipse fill="#ffc0cb" stroke="#ff0000" cx="279" cy="-162" rx="27" ry="18"/>
<text text-anchor="middle" x="279" y="-158.3" font-family="Times,serif" font-size="14.00" fill="#000000">10</text>
</g>
<!-- 3&#45;&gt;6 -->
<!-- a3 -->
<g id="node19" class="node">
<title>a3</title>
<polygon fill="none" stroke="#000000" points="180,-171 171,-162 180,-153 189,-162 180,-171"/>
</g>
<!-- 3&#45;&gt;a3 -->
<g id="edge9" class="edge">
<title>3&#45;&gt;a3</title>
<path fill="none" stroke="#000000" d="M108.0522,-162C128.8912,-162 156.4645,-162 170.664,-162"/>
</g>
<!-- 4 -->
<g id="node4" class="node">
<title>4</title>
<polygon fill="#add8e6" stroke="#0000ff" points="252,-252 198,-252 198,-216 252,-216 252,-252"/>
<text text-anchor="middle" x="225" y="-230.3" font-family="Times,serif" font-size="14.00" fill="#000000">3</text>
</g>
<!-- a2 -->
<g id="node17" class="node">
<title>a2</title>
<polygon fill="none" stroke="#000000" points="279,-243 270,-234 279,-225 288,-234 279,-243"/>
</g>
<!-- 4&#45;&gt;a2 -->
<g id="edge4" class="edge">
<title>4&#45;&gt;a2</title>
<path fill="none" stroke="#000000" d="M252.3164,-234C258.5947,-234 264.8502,-234 269.7247,-234"/>
</g>
<!-- 5 -->
<g id="node5" class="node">
<title>5</title>
<ellipse fill="#ffc0cb" stroke="#ff0000" cx="333" cy="-234" rx="27" ry="18"/>
<text text-anchor="middle" x="333" y="-230.3" font-family="Times,serif" font-size="14.00" fill="#000000">4</text>
</g>
<!-- 10 -->
<g id="node10" class="node">
<title>10</title>
<polygon fill="#add8e6" stroke="#0000ff" points="486,-180 432,-180 432,-144 486,-144 486,-180"/>
<text text-anchor="middle" x="459" y="-158.3" font-family="Times,serif" font-size="14.00" fill="#000000">11</text>
</g>
<!-- 6&#45;&gt;10 -->
<!-- 7 -->
<g id="node7" class="node">
<title>7</title>
<polygon fill="#add8e6" stroke="#0000ff" points="207,-108 153,-108 153,-72 207,-72 207,-108"/>
<text text-anchor="middle" x="180" y="-86.3" font-family="Times,serif" font-size="14.00" fill="#000000">13</text>
</g>
<!-- c1 -->
<g id="node24" class="node">
<title>c1</title>
<polygon fill="none" stroke="#000000" points="371,-99 362,-90 371,-81 380,-90 371,-99"/>
</g>
<!-- 7&#45;&gt;c1 -->
<g id="edge25" class="edge">
<title>7&#45;&gt;c1</title>
<path fill="none" stroke="#000000" d="M207.3656,-90C250.8953,-90 333.8318,-90 361.6442,-90"/>
</g>
<!-- 8 -->
<g id="node8" class="node">
<title>8</title>
<polygon fill="#add8e6" stroke="#0000ff" points="432,-252 378,-252 378,-216 432,-216 432,-252"/>
<text text-anchor="middle" x="405" y="-230.3" font-family="Times,serif" font-size="14.00" fill="#000000">5</text>
</g>
<!-- b1 -->
<g id="node20" class="node">
<title>b1</title>
<polygon fill="none" stroke="#000000" points="459,-243 450,-234 459,-225 468,-234 459,-243"/>
</g>
<!-- 8&#45;&gt;b1 -->
<g id="edge13" class="edge">
<title>8&#45;&gt;b1</title>
<path fill="none" stroke="#000000" d="M432.3164,-234C438.5947,-234 444.8502,-234 449.7247,-234"/>
</g>
<!-- 9 -->
<g id="node9" class="node">
<title>9</title>
<ellipse fill="#ffc0cb" stroke="#ff0000" cx="513" cy="-234" rx="27" ry="18"/>
<text text-anchor="middle" x="513" y="-230.3" font-family="Times,serif" font-size="14.00" fill="#000000">6</text>
</g>
<!-- t2 -->
<!-- 9&#45;&gt;t2 -->
<!-- 13 -->
<g id="node13" class="node">
<title>13</title>
<ellipse fill="#ffc0cb" stroke="#ff0000" cx="665" cy="-162" rx="27" ry="18"/>
<text text-anchor="middle" x="665" y="-158.3" font-family="Times,serif" font-size="14.00" fill="#000000">12</text>
</g>
<!-- 10&#45;&gt;13 -->
<!-- b3 -->
<g id="node23" class="node">
<title>b3</title>
<polygon fill="none" stroke="#000000" points="562,-171 553,-162 562,-153 571,-162 562,-171"/>
</g>
<!-- 10&#45;&gt;b3 -->
<g id="edge21" class="edge">
<title>10&#45;&gt;b3</title>
<path fill="none" stroke="#000000" d="M486.062,-162C507.9962,-162 537.6297,-162 552.5635,-162"/>
</g>
<!-- 11 -->
<g id="node11" class="node">
<title>11</title>
<polygon fill="#add8e6" stroke="#0000ff" points="638,-252 584,-252 584,-216 638,-216 638,-252"/>
<text text-anchor="middle" x="611" y="-230.3" font-family="Times,serif" font-size="14.00" fill="#000000">7</text>
</g>
<!-- b2 -->
<g id="node21" class="node">
<title>b2</title>
<polygon fill="none" stroke="#000000" points="665,-243 656,-234 665,-225 674,-234 665,-243"/>
</g>
<!-- 11&#45;&gt;b2 -->
<g id="edge16" class="edge">
<title>11&#45;&gt;b2</title>
<path fill="none" stroke="#000000" d="M638.3164,-234C644.5947,-234 650.8502,-234 655.7247,-234"/>
</g>
<!-- 12 -->
<g id="node12" class="node">
<title>12</title>
<ellipse fill="#ffc0cb" stroke="#ff0000" cx="719" cy="-234" rx="27" ry="18"/>
<text text-anchor="middle" x="719" y="-230.3" font-family="Times,serif" font-size="14.00" fill="#000000">8</text>
</g>
<!-- 14 -->
<g id="node14" class="node">
<title>14</title>
<ellipse fill="#ffc0cb" stroke="#ff0000" cx="562" cy="-90" rx="27" ry="18"/>
<text text-anchor="middle" x="562" y="-86.3" font-family="Times,serif" font-size="14.00" fill="#000000">14</text>
</g>
<!-- 15 -->
<g id="node15" class="node">
<title>15</title>
<polygon fill="#add8e6" stroke="#0000ff" points="398,-36 344,-36 344,0 398,0 398,-36"/>
<text text-anchor="middle" x="371" y="-14.3" font-family="Times,serif" font-size="14.00" fill="#000000">17</text>
</g>
<!-- a1&#45;&gt;2 -->
<g id="edge2" class="edge">
<title>a1&#45;&gt;2</title>
<path fill="none" stroke="#000000" d="M90.4061,-234C95.2409,-234 101.4088,-234 107.6045,-234"/>
</g>
<!-- a1&#45;&gt;3 -->
<g id="edge3" class="edge">
<title>a1&#45;&gt;3</title>
<path fill="none" stroke="#000000" d="M81,-224.8812C81,-213.6804 81,-194.4139 81,-180.1512"/>
</g>
<!-- a2&#45;&gt;5 -->
<g id="edge5" class="edge">
<title>a2&#45;&gt;5</title>
<path fill="none" stroke="#000000" d="M288.4061,-234C293.2409,-234 299.4088,-234 305.6045,-234"/>
</g>
<!-- a2&#45;&gt;6 -->
<g id="edge6" class="edge">
<title>a2&#45;&gt;6</title>
<path fill="none" stroke="#000000" d="M279,-224.8812C279,-213.6804 279,-194.4139 279,-180.1512"/>
</g>
<!-- t1&#45;&gt;4 -->
<!-- t1&#45;&gt;a3 -->
<!-- a3&#45;&gt;6 -->
<g id="edge10" class="edge">
<title>a3&#45;&gt;6</title>
<path fill="none" stroke="#000000" d="M189.1362,-162C203.2094,-162 230.7509,-162 251.6529,-162"/>
</g>
<!-- a3&#45;&gt;7 -->
<g id="edge11" class="edge">
<title>a3&#45;&gt;7</title>
<path fill="none" stroke="#000000" d="M180,-152.8812C180,-141.6804 180,-122.4139 180,-108.1512"/>
</g>
<!-- b1&#45;&gt;9 -->
<g id="edge14" class="edge">
<title>b1&#45;&gt;9</title>
<path fill="none" stroke="#000000" d="M468.4061,-234C473.2409,-234 479.4088,-234 485.6045,-234"/>
</g>
<!-- b1&#45;&gt;10 -->
<g id="edge15" class="edge">
<title>b1&#45;&gt;10</title>
<path fill="none" stroke="#000000" d="M459,-224.8812C459,-213.6804 459,-194.4139 459,-180.1512"/>
</g>
<!-- b2&#45;&gt;12 -->
<g id="edge17" class="edge">
<title>b2&#45;&gt;12</title>
<path fill="none" stroke="#000000" d="M674.4061,-234C679.2409,-234 685.4088,-234 691.6045,-234"/>
</g>
<!-- b2&#45;&gt;13 -->
<g id="edge18" class="edge">
<title>b2&#45;&gt;13</title>
<path fill="none" stroke="#000000" d="M665,-224.8812C665,-213.6804 665,-194.4139 665,-180.1512"/>
</g>
<!-- t2&#45;&gt;11 -->
<!-- t2&#45;&gt;b3 -->
<!-- b3&#45;&gt;13 -->
<g id="edge22" class="edge">
<title>b3&#45;&gt;13</title>
<path fill="none" stroke="#000000" d="M571.1406,-162C585.9109,-162 615.5963,-162 637.6472,-162"/>
</g>
<!-- b3&#45;&gt;14 -->
<g id="edge23" class="edge">
<title>b3&#45;&gt;14</title>
<path fill="none" stroke="#000000" d="M562,-152.8812C562,-141.6804 562,-122.4139 562,-108.1512"/>
</g>
<!-- c1&#45;&gt;14 -->
<g id="edge26" class="edge">
<title>c1&#45;&gt;14</title>
<path fill="none" stroke="#000000" d="M380.2123,-90C407.9328,-90 491.3364,-90 534.8752,-90"/>
</g>
<!-- c1&#45;&gt;15 -->
<g id="edge27" class="edge">
<title>c1&#45;&gt;15</title>
<path fill="none" stroke="#000000" d="M371,-80.8812C371,-69.6804 371,-50.4139 371,-36.1512"/>
</g>
</g>
</svg>
